# xmcd
#
# Track frame offsets:
#	150
#	21577
#	35700
#	51181
#	69285
#	84899
#	100669
#	115180
#	133383
#	149411
#
# Disc length: 2145 seconds
#
# Revision: 0
# Processed by: cddbd v1.5.2PL0 Copyright (c) Steve Scherf et al.
# Submitted via: EasyCDDAExtractor 9.1.0.1
#
DISCID=8c085f0a
DTITLE=ΡΕΜΠΟΥΤΣΙΚΑ, ΠΑΣΠΑΛΑ and ΖΙΩΓΑ - Ο ΧΩΡΟΣ ΤΩΝ ΑΣΤΡΩΝ
DYEAR=2007
DGENRE=Blues
TTITLE0=ΠΟΛΗ
TTITLE1=ΑΥΓΟΥΣΤΟΣ
TTITLE2=ΑΝ Η ΑΓΑΠΗ
TTITLE3=ΠΟΙΑ ΕΚΔΙΚΗΣΗ
TTITLE4=ΠΩΣ ΝΑ ΞΕΧΑΣΩ
TTITLE5=Ο ΧΟΡΟΣ ΤΩΝ ΑΣΤΡΩΝ
TTITLE6=ΣΤΟΙΧΗΜΑ ΣΤΟΝ ΕΡΩΤΑ
TTITLE7=ΨΕΜΑ ΕΙΝΑΙ
TTITLE8=ΔΕΥΤΕΡΗ ΖΩΗ
TTITLE9=ALMA LIBRE
EXTD=
EXTT0=
EXTT1=
EXTT2=
EXTT3=
EXTT4=
EXTT5=
EXTT6=
EXTT7=
EXTT8=
EXTT9=
PLAYORDER=
